# xmcd
#
# Track frame offsets:
#	150
#	10386
#	31151
#	62921
#	81404
#	97981
#	111496
#	131547
#
# Disc length: 2050 seconds
#
# Revision: 4
# Processed by: cddbd v1.5.2PL0 Copyright (c) Steve Scherf et al.
# Submitted via: Jack! The Knife
#
DISCID=66080008
DTITLE=Mortal Sin - Mayhemic Destruction
DYEAR=1987
DGENRE=Heavy Metal
TTITLE0=The Curse
TTITLE1=Women In Leather
TTITLE2=Lebanon
TTITLE3=Liar
TTITLE4=Blood, Death, Hatred
TTITLE5=Mortal Slaughter
TTITLE6=Into The Fire
TTITLE7=Mayhemic Destruction
EXTD=Heavy Metal
EXTT0=Krstin
EXTT1=Carwana - Eftichiou - Campbell - Maurer
EXTT2=Krstin - Carwana - Eftichiou - Maurer
EXTT3=Krstin - Campbell - Eftichiou - Maurer
EXTT4=Krstin - Campbell - Maurer
EXTT5=Krstin - Campbell - Maurer
EXTT6=Krstin - Maurer
EXTT7=Krstin - Carwana - Eftichiou - Campbell - Maurer
PLAYORDER=
